<svg width="54" height="55" viewBox="0 0 54 55" fill="none" xmlns="http://www.w3.org/2000/svg">
<path d="M24.7568 28.5335C24.2905 27.9486 23.7565 27.5009 23.1586 27.1981C23.687 26.8765 24.142 26.4816 24.518 26.0114C25.1517 25.2177 25.4732 24.2227 25.4732 23.0529C25.4732 22.0768 25.2156 21.1797 24.706 20.3879C24.1984 19.596 23.4425 18.9603 22.4592 18.4977C21.4965 18.0444 20.3364 17.8149 19.0146 17.8149H11.4956V37.2377H19.3606C20.6485 37.2377 21.7992 37.0026 22.7788 36.5399C23.7772 36.0698 24.5556 35.4115 25.0896 34.5858C25.6255 33.7564 25.8981 32.8141 25.8981 31.7853C25.8981 30.5798 25.5145 29.487 24.7568 28.5354V28.5335ZM20.7632 24.9939C20.2988 25.37 19.62 25.5619 18.7495 25.5619H15.4967V21.2587H18.7495C19.6163 21.2587 20.2913 21.4561 20.7557 21.8473C21.2013 22.2216 21.4175 22.7388 21.4175 23.4234C21.4175 24.108 21.2032 24.6384 20.7632 24.9939ZM15.4967 29.0074H18.9883C19.9021 29.0074 20.6053 29.2294 21.1374 29.6864C21.6469 30.1246 21.8951 30.7058 21.8951 31.4656C21.8951 32.2255 21.6657 32.7615 21.1919 33.1621C20.7012 33.5777 19.9961 33.7884 19.0936 33.7884H15.4967V29.0074Z" fill="#3E3E3E"/>
<path d="M41.2594 25.2854C40.654 24.1907 39.7966 23.3275 38.7098 22.7219C37.6249 22.1163 36.3708 21.8097 34.987 21.8097C33.6032 21.8097 32.255 22.1257 31.1438 22.7482C30.0307 23.3726 29.1545 24.2698 28.5416 25.4189C27.9286 26.5662 27.6184 27.9128 27.6184 29.4212C27.6184 30.9296 27.938 32.2781 28.5698 33.4235C29.2016 34.5708 30.0853 35.4735 31.1983 36.1055C32.3096 36.7374 33.5844 37.0571 34.9889 37.0571C36.713 37.0571 38.1777 36.6189 39.3435 35.7556C40.5092 34.8924 41.3252 33.7677 41.7708 32.4154L41.8028 32.3195H38.3921L38.3714 32.3609C37.7152 33.6906 36.5777 34.3639 34.987 34.3639C33.8795 34.3639 32.9319 34.0122 32.1704 33.3219C31.4277 32.6467 31.0009 31.744 30.9013 30.6362H42.0547L42.0641 30.5741C42.1356 30.1284 42.1713 29.6243 42.1713 29.077C42.1713 27.6551 41.8648 26.38 41.2594 25.2854ZM32.2231 25.481C32.9488 24.8321 33.8344 24.5049 34.8535 24.5049C35.9798 24.5049 36.9368 24.8378 37.6983 25.496C38.4391 26.1355 38.832 26.995 38.8659 28.0482H30.9332C31.0837 26.9781 31.518 26.1148 32.225 25.4829L32.2231 25.481Z" fill="#3E3E3E"/>
<path d="M38.6084 18.2626H31.1797V20.023H38.6084V18.2626Z" fill="#3E3E3E"/>
</svg>
