<svg width="55" height="55" viewBox="0 0 55 55" fill="none" xmlns="http://www.w3.org/2000/svg">
<path d="M44.3373 28.2231C44.341 28.1648 44.3429 28.1046 44.3448 28.0444L44.3768 27.2978L44.3486 27.2902C44.294 23.3444 42.8876 19.6054 40.3512 16.6187L40.3813 16.5868L39.5822 15.7649C36.3764 12.4716 32.0839 10.6586 27.4924 10.6586C25.1346 10.6586 22.867 11.1344 20.7367 12.0692L20.7198 12.056L20.0279 12.3983C19.1122 12.8516 18.2473 13.3819 17.4407 13.9819C16.903 14.3825 16.3915 14.8113 15.9064 15.2702C15.7259 15.4414 15.5511 15.6163 15.3781 15.795C13.0071 18.2456 11.3977 21.3884 10.843 24.8264L10.6644 25.9399L10.7039 25.9493C10.655 26.4721 10.6287 27.0006 10.6287 27.5272C10.6287 31.9978 12.4111 36.2841 15.5492 39.4344L15.536 39.4589L16.2392 40.0889C19.336 42.865 23.3314 44.3959 27.4905 44.3959C27.7857 44.3959 28.079 44.3884 28.3704 44.3733C30.4161 44.2699 32.396 43.7997 34.2649 42.9778C34.2649 42.9778 34.2668 42.9778 34.2687 42.9778L35.0001 42.6562V42.6336C40.4433 39.9159 44.0778 34.362 44.3354 28.2701C44.3354 28.2683 44.3354 28.2664 44.3354 28.2645C44.3354 28.2626 44.3354 28.2589 44.3354 28.257V28.2306L44.3373 28.2231ZM41.8667 29.1447C41.8591 29.2049 41.8516 29.2651 41.8441 29.3253C41.8309 29.4287 41.8178 29.5321 41.8027 29.6337C41.7933 29.6995 41.782 29.7654 41.7708 29.8312C41.7557 29.9271 41.7388 30.023 41.7219 30.1189C41.7087 30.1885 41.6956 30.2562 41.6805 30.3258C41.6617 30.418 41.6448 30.5101 41.6241 30.6004C41.6091 30.67 41.5921 30.7396 41.5752 30.8092C41.5545 30.8995 41.532 30.9879 41.5094 31.0763C41.4906 31.1458 41.4718 31.2173 41.453 31.2869C41.4286 31.3734 41.4041 31.4618 41.3797 31.5483C41.359 31.6179 41.3383 31.6894 41.3158 31.759C41.2894 31.8455 41.2612 31.9301 41.2349 32.0166C41.2123 32.0862 41.1879 32.1558 41.1635 32.2254C41.1334 32.31 41.1033 32.3947 41.0732 32.4793C41.0488 32.547 41.0224 32.6166 40.9961 32.6843C40.9641 32.769 40.9303 32.8517 40.8965 32.9363C40.8701 33.004 40.8419 33.0699 40.8137 33.1376C40.778 33.2203 40.7423 33.3031 40.7047 33.3858C40.6746 33.4517 40.6464 33.5175 40.6163 33.5815C40.5768 33.6642 40.5373 33.747 40.4979 33.8297C40.4678 33.8937 40.4358 33.9557 40.4039 34.0197C40.3625 34.1024 40.3174 34.1852 40.2741 34.2679C40.2422 34.3281 40.2102 34.3883 40.1782 34.4485C40.1312 34.5331 40.0823 34.6178 40.0334 34.7024C40.0015 34.7588 39.9695 34.8152 39.9375 34.8698C39.883 34.9619 39.8266 35.0541 39.7702 35.1444C39.742 35.1895 39.7138 35.2365 39.6856 35.2835C39.6066 35.4077 39.5258 35.5299 39.443 35.6522C39.4355 35.6654 39.4261 35.6766 39.4186 35.6898C39.3265 35.8233 39.2325 35.955 39.1366 36.0866C39.1084 36.1243 39.0783 36.1619 39.0501 36.1995C38.9824 36.2916 38.9128 36.3819 38.8433 36.4722C38.8057 36.5211 38.7662 36.5681 38.7267 36.617C38.6646 36.6941 38.6007 36.7731 38.5368 36.8484C38.4935 36.8991 38.4484 36.9499 38.4052 37.0007C38.3431 37.0722 38.2811 37.1436 38.2172 37.2151C38.1701 37.2678 38.1231 37.3185 38.0761 37.3693C38.0141 37.437 37.9502 37.5047 37.8862 37.5725C37.8373 37.6232 37.7866 37.674 37.7358 37.7248C37.6719 37.7887 37.608 37.8546 37.5421 37.9185C37.4895 37.9693 37.4387 38.0182 37.3861 38.069C37.3203 38.131 37.2545 38.1931 37.1887 38.2533C37.1341 38.3022 37.0796 38.3511 37.0251 38.4C36.9574 38.4602 36.8897 38.5185 36.8201 38.5768C36.7637 38.6238 36.7092 38.6708 36.6509 38.7178C36.5814 38.7743 36.5118 38.8326 36.4403 38.8871C36.3839 38.9323 36.3257 38.9774 36.2674 39.0225C36.1959 39.0771 36.1226 39.1316 36.0511 39.1862C35.9928 39.2294 35.9327 39.2727 35.8744 39.3159C35.8011 39.3686 35.7259 39.4213 35.6506 39.472C35.5905 39.5134 35.5322 39.5548 35.472 39.5943C35.3949 39.6451 35.316 39.6958 35.2389 39.7447C35.1787 39.7824 35.1185 39.8219 35.0584 39.8595C35.002 39.8952 34.9437 39.9272 34.8854 39.9629C34.6128 36.4045 33.8156 32.7201 32.5502 29.1767C35.6845 28.4714 38.8658 28.4488 41.8704 29.1184C41.8704 29.1278 41.8704 29.1372 41.8685 29.1447H41.8667ZM31.6702 26.9235C31.2453 25.9173 30.7903 24.9336 30.3014 23.982C33.4489 22.5507 36.305 20.6267 38.674 18.3453C40.622 20.7132 41.7557 23.6115 41.9306 26.6828C38.6045 26.0151 35.1035 26.0978 31.6683 26.9235H31.6702ZM13.449 24.0252C13.5035 23.8052 13.5637 23.5851 13.6295 23.367C13.6408 23.3275 13.6539 23.2861 13.6652 23.2466C13.731 23.0341 13.8006 22.8234 13.8758 22.6146C13.8814 22.5996 13.8852 22.5864 13.8908 22.5714C13.9002 22.5451 13.9096 22.5187 13.919 22.4924C13.9961 22.2855 14.077 22.0824 14.1616 21.8793C14.1748 21.8492 14.186 21.821 14.1992 21.7909C14.2011 21.7852 14.2048 21.7796 14.2067 21.7721C14.2951 21.5652 14.3891 21.3621 14.4888 21.1608C14.5038 21.1288 14.5207 21.0969 14.5358 21.063C14.6373 20.8599 14.7426 20.6605 14.8535 20.4631C14.8704 20.4311 14.8874 20.401 14.9062 20.3709C15.0152 20.1791 15.1299 19.9891 15.2484 19.801C15.2615 19.7803 15.2747 19.7596 15.2879 19.7389C15.2954 19.7258 15.3048 19.7126 15.3142 19.6994C15.4345 19.5114 15.5605 19.3271 15.6883 19.1465C15.7109 19.1145 15.7353 19.0807 15.7579 19.0487C15.8895 18.8663 16.0268 18.6857 16.1678 18.5089C16.1904 18.4807 16.2148 18.4525 16.2374 18.4243C16.3803 18.2475 16.5269 18.0726 16.6792 17.9014C16.698 17.8789 16.7187 17.8582 16.7375 17.8356C16.8936 17.6607 17.0553 17.4914 17.2207 17.324C17.2395 17.3052 17.2564 17.2883 17.2752 17.2695C17.4369 17.1096 17.6005 16.9516 17.7697 16.7993C17.7848 16.7861 17.7998 16.7711 17.8149 16.7579C17.8243 16.7504 17.8318 16.7429 17.8412 16.7353C18.0104 16.5849 18.1834 16.4382 18.3582 16.2934C18.3865 16.2708 18.4147 16.2463 18.4429 16.2238C18.6215 16.0808 18.802 15.9435 18.9881 15.8081C19.0201 15.7856 19.0521 15.7611 19.0859 15.7385C19.272 15.605 19.4619 15.4752 19.6556 15.3511C19.6857 15.3323 19.7177 15.3116 19.7477 15.2928C19.947 15.1668 20.1482 15.0445 20.355 14.9279C20.3701 14.9204 20.3851 14.911 20.4002 14.9035C22.82 17.0099 25.0368 19.6994 26.8869 22.7707C22.4233 24.3412 17.7096 24.7963 13.4358 24.0704C13.4396 24.0534 13.4434 24.0384 13.4471 24.0215L13.449 24.0252ZM28.1899 13.0697C28.267 13.0735 28.3441 13.081 28.4212 13.0848C28.5773 13.0942 28.7314 13.1054 28.8856 13.1186C28.9759 13.128 29.0661 13.1393 29.1564 13.1487C29.2955 13.1638 29.4346 13.1807 29.5738 13.2014C29.6697 13.2145 29.7637 13.2315 29.8577 13.2465C29.9912 13.2691 30.1228 13.2917 30.2544 13.3161C30.3503 13.3349 30.4462 13.3537 30.5421 13.3744C30.6718 13.4026 30.8016 13.4308 30.9294 13.4628C31.0253 13.4854 31.1193 13.5098 31.2133 13.5343C31.3412 13.5681 31.469 13.6039 31.5969 13.6415C31.689 13.6678 31.7812 13.696 31.8733 13.7242C32.003 13.7656 32.1327 13.8089 32.2625 13.854C32.349 13.8841 32.4355 13.9123 32.522 13.9443C32.6611 13.9969 32.8002 14.0515 32.9375 14.1079C33.0108 14.138 33.0841 14.1643 33.1556 14.1963C33.353 14.2809 33.5486 14.3693 33.7422 14.4615C33.761 14.4709 33.7817 14.4803 33.8005 14.4897C33.9961 14.5837 34.1897 14.6834 34.3796 14.7869C34.4492 14.8245 34.5169 14.864 34.5846 14.9035C34.7143 14.9768 34.844 15.0502 34.9738 15.1292C35.0527 15.1762 35.1279 15.227 35.205 15.2759C35.3216 15.3492 35.4363 15.4226 35.551 15.4997C35.6318 15.5542 35.7108 15.6106 35.7898 15.6652C35.8988 15.7423 36.0079 15.8194 36.1151 15.9003C36.194 15.9586 36.2711 16.0188 36.3501 16.079C36.4554 16.1617 36.5607 16.2445 36.6641 16.331C36.7393 16.393 36.8145 16.457 36.8897 16.5209C36.9292 16.5548 36.9687 16.5924 37.0082 16.6263C34.7933 18.7591 32.1064 20.5496 29.1413 21.8755C27.3288 18.7967 25.1628 16.0602 22.7843 13.8314C24.2885 13.3123 25.8641 13.049 27.4886 13.049C27.7236 13.049 27.9568 13.0547 28.1899 13.0659V13.0697ZM13.0617 26.4383C14.5132 26.6828 16.008 26.805 17.5234 26.805C21.0169 26.805 24.625 26.1618 28.0734 24.896C28.5284 25.7706 28.9571 26.6715 29.3557 27.5968C29.1545 27.6645 28.9552 27.7322 28.7559 27.8056C23.6981 29.677 19.5071 33.0078 16.7901 37.264C14.3797 34.614 13.0203 31.1402 13.0203 27.5253C13.0203 27.1624 13.0353 26.7994 13.0617 26.4383ZM26.8493 41.9829C26.7798 41.9791 26.7102 41.9735 26.6406 41.9697C26.4977 41.9622 26.3567 41.9528 26.2138 41.9396C26.1311 41.9321 26.0502 41.9227 25.9675 41.9133C25.8397 41.9001 25.7099 41.8851 25.5821 41.8681C25.4956 41.8569 25.4091 41.8437 25.3226 41.8305C25.2004 41.8117 25.0782 41.7929 24.9559 41.7703C24.8676 41.7553 24.7792 41.7384 24.6927 41.7195C24.5724 41.6951 24.4539 41.6707 24.3355 41.6443C24.2471 41.6255 24.1606 41.6048 24.0741 41.5823C23.9557 41.554 23.8372 41.5221 23.7206 41.492C23.6342 41.4694 23.5495 41.445 23.4649 41.4205C23.3465 41.3867 23.228 41.3491 23.1096 41.3114C23.0268 41.2851 22.946 41.2606 22.8633 41.2324C22.741 41.1911 22.6188 41.1459 22.4985 41.1027C22.4233 41.0745 22.3462 41.0481 22.271 41.018C22.1394 40.9672 22.0078 40.9127 21.8761 40.8563C21.8141 40.8299 21.752 40.8055 21.69 40.7792C21.502 40.6964 21.3158 40.6099 21.1316 40.5196C21.1278 40.5196 21.1241 40.5159 21.1203 40.514C20.9304 40.4218 20.7443 40.324 20.5581 40.2225C20.5036 40.1924 20.4491 40.1585 20.3927 40.1284C20.2648 40.057 20.1369 39.9836 20.011 39.9084C19.9433 39.867 19.8756 39.8237 19.8079 39.7805C19.697 39.7109 19.586 39.6413 19.477 39.568C19.4055 39.5209 19.3341 39.4701 19.2645 39.4212C19.1611 39.3498 19.0596 39.2783 18.958 39.2031C18.8847 39.1504 18.8133 39.0959 18.7418 39.0413C18.6873 39 18.6328 38.9567 18.5782 38.9134C21.0018 34.9187 24.8789 31.791 29.5888 30.0475C29.8032 29.9685 30.0213 29.8951 30.2394 29.8218C31.5819 33.5269 32.3791 37.3957 32.5596 41.0801C32.3509 41.1591 32.1403 41.2324 31.9297 41.3001C31.8733 41.3189 31.815 41.334 31.7586 41.3509C31.5931 41.4017 31.4258 41.4525 31.2585 41.4976C31.1757 41.5202 31.0911 41.539 31.0065 41.5616C30.8636 41.5973 30.7207 41.6312 30.5759 41.6631C30.4857 41.6838 30.3935 41.7007 30.3014 41.7195C30.1623 41.7478 30.0231 41.7722 29.8821 41.7967C29.79 41.8117 29.696 41.8268 29.602 41.8399C29.4591 41.8606 29.3162 41.8794 29.1714 41.8945C29.0812 41.9058 28.9928 41.9152 28.9025 41.9246C28.7446 41.9396 28.5867 41.9509 28.4287 41.9603C28.3516 41.9659 28.2764 41.9716 28.1993 41.9754C27.9643 41.9866 27.7274 41.9942 27.4905 41.9942C27.2761 41.9942 27.0637 41.9885 26.8512 41.9791L26.8493 41.9829Z" fill="#3E3E3E"/>
</svg>
