<svg width="54" height="55" viewBox="0 0 54 55" fill="none" xmlns="http://www.w3.org/2000/svg">
<path d="M25.6271 13.7495C23.0914 13.9877 20.6351 14.9403 18.557 16.5C17.0207 17.6534 15.8439 18.9843 14.8305 20.7168C13.9573 22.2111 13.4156 23.7708 13.1074 25.6995C13.0047 26.3112 12.9673 28.3285 13.0373 29.0944C13.3455 32.3726 14.7838 35.3566 17.1934 37.7428C18.2955 38.8309 19.3929 39.6061 20.8172 40.2972C22.5357 41.1331 23.1848 41.2218 23.4556 40.6661C23.5443 40.4886 23.549 40.3719 23.549 39.083V37.6868L23.3762 37.7195C22.2602 37.9063 21.0507 37.8315 20.2848 37.528C19.6684 37.2852 19.0333 36.6921 18.8746 36.2065C18.5664 35.3005 17.9266 34.3946 17.3289 34.0303C17.0113 33.8342 16.7218 33.5167 16.7405 33.3812C16.7732 33.1618 17.4083 33.1244 17.9173 33.3159C18.2348 33.4326 18.7018 33.7315 18.968 33.979C19.08 34.0864 19.3229 34.4039 19.505 34.6888C19.9066 35.3005 20.2895 35.6694 20.7565 35.9029C21.2375 36.1364 21.569 36.1831 22.2321 36.1177C22.7598 36.0617 23.4229 35.8889 23.5303 35.7722C23.5583 35.7395 23.605 35.5807 23.6377 35.4126C23.7125 35.025 24.0533 34.3199 24.2775 34.0911C24.3709 33.993 24.4363 33.9043 24.4269 33.8903C24.4129 33.8809 24.1421 33.8295 23.8245 33.7782C22.6431 33.5961 22.0734 33.4233 21.1861 32.9796C19.7805 32.2745 19.0287 31.3919 18.501 29.8135C18.2628 29.0944 18.1321 28.3192 18.0994 27.4039C18.0387 25.7555 18.4123 24.5647 19.3275 23.4767L19.533 23.2338L19.4209 22.9069C19.2715 22.4726 19.1874 21.7675 19.2248 21.3192C19.2808 20.6561 19.547 19.6147 19.6871 19.526C19.7151 19.5073 19.8505 19.4887 19.9813 19.4887C20.6024 19.4887 22.0173 20.0444 23.068 20.7075L23.4976 20.9783L23.8385 20.8849C24.0253 20.8336 24.483 20.7355 24.8565 20.6701C25.7812 20.5113 27.4016 20.4693 28.4289 20.5814C29.0267 20.6468 30.1848 20.8662 30.4136 20.955C30.4556 20.9737 30.7124 20.8382 31.044 20.6328C31.978 20.049 33.1828 19.554 33.7758 19.5027C34.2942 19.4606 34.3128 19.47 34.4716 19.9696C34.8125 21.0344 34.8452 22.0757 34.565 22.8883C34.5183 23.0284 34.4763 23.1684 34.4763 23.2011C34.4763 23.2292 34.593 23.4019 34.7331 23.5794C35.2561 24.2285 35.611 24.9943 35.7838 25.8396C35.8772 26.2785 35.8819 26.4326 35.8632 27.3105C35.8305 28.562 35.6998 29.3045 35.3589 30.1731C34.8499 31.462 34.2148 32.1858 33.0006 32.8629C32.1741 33.3252 31.3382 33.5961 30.1381 33.7782C29.8205 33.8295 29.5543 33.8762 29.5403 33.8856C29.531 33.8996 29.5777 33.9696 29.6477 34.0397C29.8625 34.2685 30.1194 34.7028 30.2268 35.0063C30.4276 35.6041 30.4603 36.043 30.4603 38.3452C30.4603 40.7128 30.4603 40.7128 30.7358 40.9276C30.9413 41.091 31.4316 41.035 32.0713 40.7875C33.9719 40.0357 35.4383 39.0784 36.8345 37.6821C38.8052 35.7068 40.0894 33.4186 40.6591 30.8689C41.2428 28.2678 41.0747 25.4146 40.1968 22.9583C39.9353 22.2345 39.3095 20.941 38.9079 20.3059C36.5263 16.5187 32.6784 14.1511 28.2655 13.7495C27.6491 13.6935 26.2435 13.6935 25.6271 13.7495Z" fill="#404040"/>
</svg>
