<svg width="55" height="54" viewBox="0 0 55 54" fill="none" xmlns="http://www.w3.org/2000/svg">
<path d="M35.8065 10.9216H19.2004C14.6126 10.9216 10.8804 14.655 10.8804 19.2441V34.4407C10.8804 39.0298 14.6126 42.7632 19.2004 42.7632H35.8065C40.3942 42.7632 44.1264 39.0298 44.1264 34.4407V19.2441C44.1264 14.655 40.3942 10.9216 35.8065 10.9216ZM13.8154 19.2441C13.8154 16.2743 16.2315 13.8575 19.2004 13.8575H35.8065C38.7753 13.8575 41.1914 16.2743 41.1914 19.2441V34.4407C41.1914 37.4105 38.7753 39.8273 35.8065 39.8273H19.2004C16.2315 39.8273 13.8154 37.4105 13.8154 34.4407V19.2441Z" fill="#3E3E3E"/>
<path d="M27.5034 34.5818C31.7696 34.5818 35.2424 31.1099 35.2424 26.8405C35.2424 22.5711 31.7715 19.0992 27.5034 19.0992C23.2353 19.0992 19.7644 22.5711 19.7644 26.8405C19.7644 31.1099 23.2353 34.5818 27.5034 34.5818ZM27.5034 22.037C30.1526 22.037 32.3074 24.1924 32.3074 26.8424C32.3074 29.4924 30.1526 31.6478 27.5034 31.6478C24.8542 31.6478 22.6994 29.4924 22.6994 26.8424C22.6994 24.1924 24.8542 22.037 27.5034 22.037Z" fill="#3E3E3E"/>
<path d="M35.9589 20.3499C37.1078 20.3499 38.0441 19.4152 38.0441 18.2641C38.0441 17.1131 37.1096 16.1783 35.9589 16.1783C34.8082 16.1783 33.8738 17.1131 33.8738 18.2641C33.8738 19.4152 34.8082 20.3499 35.9589 20.3499Z" fill="#3E3E3E"/>
</svg>
