<svg width="55" height="55" viewBox="0 0 55 55" fill="none" xmlns="http://www.w3.org/2000/svg">
<path d="M13.4675 18.5259C12.7605 17.8695 12.4089 17.0571 12.4089 16.0903C12.4089 15.1236 12.7624 14.2754 13.4675 13.6171C14.1744 12.9607 15.0845 12.6316 16.1994 12.6316C17.3144 12.6316 18.1887 12.9607 18.8938 13.6171C19.6008 14.2735 19.9524 15.0992 19.9524 16.0903C19.9524 17.0815 19.5989 17.8695 18.8938 18.5259C18.1869 19.1823 17.29 19.5115 16.1994 19.5115C15.1089 19.5115 14.1744 19.1823 13.4675 18.5259ZM19.3582 22.2912V42.4155H13.0012V22.2912H19.3582Z" fill="#3E3E3E"/>
<path d="M40.5204 24.2793C41.9061 25.7839 42.598 27.849 42.598 30.4783V42.0601H36.5607V31.2946C36.5607 29.9686 36.2166 28.9379 35.5303 28.2044C34.844 27.4709 33.919 27.1023 32.7607 27.1023C31.6025 27.1023 30.6774 27.4691 29.9911 28.2044C29.3049 28.9379 28.9608 29.9686 28.9608 31.2946V42.0601H22.8877V22.2349H28.9608V24.8642C29.5756 23.9877 30.4048 23.2956 31.4465 22.7859C32.4881 22.2763 33.6595 22.0223 34.9625 22.0223C37.2827 22.0223 39.1365 22.7746 40.5204 24.2774V24.2793Z" fill="#3E3E3E"/>
</svg>
