<svg width="54" height="55" viewBox="0 0 54 55" fill="none" xmlns="http://www.w3.org/2000/svg">
<path fill-rule="evenodd" clip-rule="evenodd" d="M24.7189 34.8642C24.6869 34.9752 24.6568 35.0692 24.6324 35.1633C23.2128 40.7266 23.0549 41.9623 21.5958 44.5464C20.9001 45.7746 20.1161 46.9388 19.2493 48.0522C19.1515 48.1782 19.0594 48.34 18.8638 48.3005C18.6495 48.2554 18.6326 48.0616 18.61 47.8905C18.3769 46.1997 18.2471 44.5051 18.3035 42.7973C18.3769 40.5743 18.6514 39.8107 21.5168 27.7586C21.5582 27.5743 21.5112 27.422 21.451 27.2565C20.7648 25.4058 20.6294 23.5269 21.2292 21.6236C22.5265 17.5122 27.1857 17.1981 27.9998 20.5891C28.5019 22.6862 27.1744 25.4321 26.1554 29.4909C25.3111 32.8386 29.2521 35.2197 32.6196 32.7747C35.7257 30.5215 36.9309 25.1199 36.7015 21.2907C36.2503 13.6566 27.8814 12.0072 22.5735 14.4653C16.4873 17.2809 15.1034 24.8265 17.8523 28.2759C18.2001 28.7141 18.8563 28.983 18.7416 29.4269C18.5649 30.1171 18.4088 30.813 18.2171 31.4995C18.0742 32.0111 17.26 32.1973 16.743 31.9866C15.7295 31.5766 14.8853 30.9315 14.2009 30.0814C11.8675 27.1907 11.2001 21.4731 14.2855 16.632C17.7038 11.2699 24.0627 9.09949 29.8688 9.75776C36.803 10.5458 41.1858 15.2854 42.0056 20.6625C42.3798 23.1113 42.1109 29.1504 38.6739 33.4198C34.7198 38.3248 28.3101 38.6502 25.3525 35.6391C25.125 35.4078 24.9426 35.1388 24.7189 34.8623V34.8642Z" fill="#3E3E3E"/>
</svg>
