<svg width="54" height="55" viewBox="0 0 54 55" fill="none" xmlns="http://www.w3.org/2000/svg">
<path d="M10.1644 26.2924C10.2396 26.2548 10.3148 26.2191 10.3881 26.1852C11.6629 25.5946 12.9546 25.0417 14.2445 24.4888C14.314 24.4888 14.4306 24.4079 14.4964 24.3816C14.596 24.3383 14.6957 24.2969 14.7954 24.2537C14.9872 24.1709 15.1789 24.09 15.3688 24.0073C15.7524 23.8437 16.1341 23.68 16.5176 23.5164L18.8134 22.5327C20.3439 21.8782 21.8763 21.2218 23.4068 20.5673C24.9373 19.9128 26.4697 19.2564 28.0002 18.6019C29.5307 17.9474 31.063 17.291 32.5935 16.6365C34.124 15.982 35.6564 15.3256 37.1869 14.6711C37.5273 14.5244 37.8958 14.3062 38.2605 14.2423C38.567 14.1877 38.8659 14.0824 39.1743 14.0241C39.7591 13.9132 40.404 13.868 40.9643 14.1106C41.1579 14.1953 41.3366 14.3138 41.4851 14.4623C42.1958 15.1658 42.0962 16.3205 41.9457 17.3098C40.8985 24.2048 39.8512 31.1016 38.802 37.9965C38.6591 38.9425 38.4636 39.9807 37.7171 40.5788C37.0854 41.0847 36.1866 41.1411 35.4063 40.9267C34.626 40.7104 33.9379 40.2572 33.2629 39.8114C30.4633 37.957 27.6617 36.1025 24.8621 34.2481C24.1965 33.808 23.4557 33.2325 23.4632 32.4331C23.467 31.9517 23.7546 31.5229 24.0479 31.1411C26.4809 27.9663 29.9913 25.7846 32.6029 22.7566C32.9715 22.3296 33.261 21.5585 32.7553 21.3121C32.4544 21.1654 32.1084 21.3648 31.8339 21.5547C28.3818 23.9527 24.9317 26.3526 21.4796 28.7506C20.3533 29.533 19.1725 30.338 17.815 30.5298C16.6004 30.7028 15.3783 30.3643 14.2031 30.0182C13.2179 29.7286 12.2345 29.4314 11.2549 29.1249C10.7341 28.9631 10.1963 28.7882 9.79396 28.4215C9.39159 28.0547 9.16036 27.4378 9.40291 26.9488C9.55521 26.6422 9.85041 26.4485 10.1606 26.2905L10.1644 26.2924Z" fill="#3E3E3E"/>
</svg>
