<svg width="54" height="54" viewBox="0 0 54 54" fill="none" xmlns="http://www.w3.org/2000/svg">
<path d="M40.1423 19.4209V24.4896C39.2567 24.4031 38.106 24.2018 36.8331 23.7354C35.1709 23.126 33.9338 22.2929 33.1234 21.6477V31.8923L33.1027 31.8604C33.1159 32.0635 33.1234 32.2704 33.1234 32.4791C33.1234 37.5666 28.985 41.7081 23.8971 41.7081C18.8093 41.7081 14.6709 37.5666 14.6709 32.4791C14.6709 27.3916 18.8093 23.2483 23.8971 23.2483C24.3954 23.2483 24.8843 23.2878 25.3618 23.3649V28.3602C24.9031 28.1966 24.4104 28.1082 23.8971 28.1082C21.4886 28.1082 19.5275 30.068 19.5275 32.4791C19.5275 34.8903 21.4886 36.8501 23.8971 36.8501C26.3057 36.8501 28.2668 34.8884 28.2668 32.4791C28.2668 32.3889 28.2649 32.2986 28.2593 32.2083V12.3003H33.3227C33.3415 12.7291 33.3584 13.1617 33.3772 13.5905C33.4111 14.435 33.7119 15.2456 34.2365 15.9095C34.8513 16.69 35.7595 17.5966 37.0343 18.3207C38.2282 18.9959 39.3488 19.2874 40.1423 19.4247V19.4209Z" fill="#3E3E3E"/>
</svg>
