<svg width="55" height="54" viewBox="0 0 55 54" fill="none" xmlns="http://www.w3.org/2000/svg">
<path d="M44.2784 21.219C44.0678 19.1858 43.6147 16.9383 41.9469 15.7572C40.6552 14.8412 38.9574 14.8074 37.3723 14.8093C34.0218 14.8093 30.6694 14.8149 27.3188 14.8168C24.0961 14.8206 20.8734 14.8224 17.6507 14.8262C16.3045 14.8262 14.9958 14.7228 13.7455 15.3058C12.6719 15.8061 11.8314 16.7578 11.3256 17.8166C10.6243 19.2893 10.4777 20.9575 10.3931 22.5863C10.237 25.5523 10.2539 28.5258 10.4401 31.4899C10.5773 33.6528 10.9251 36.0432 12.5967 37.4218C14.0783 38.6425 16.1691 38.7026 18.0907 38.7045C24.1901 38.7102 30.2914 38.7158 36.3928 38.7196C37.1749 38.7214 37.9909 38.7064 38.7882 38.6199C40.3563 38.4506 41.851 38.0011 42.8588 36.8388C43.876 35.6671 44.1374 34.0364 44.2916 32.4923C44.6676 28.7458 44.6638 24.9636 44.2784 21.219ZM23.7915 32.0165V21.5124L32.8843 26.7635L23.7915 32.0165Z" fill="#3E3E3E"/>
</svg>
